<?xml version="1.0" encoding="UTF-8"?>
<svg id="Ebene_1" data-name="Ebene 1" xmlns="http://www.w3.org/2000/svg" viewBox="0 0 218.68 195.56">
  <defs>
    <style>
      .cls-1 {
        fill: #998f48;
      }

      .cls-2 {
        fill: #ccbb95;
      }
    </style>
  </defs>
  <path class="cls-1" d="M111.22,122.43l-.38,24.7c-.02,1-3.56.68-3.56-.57l.04-23.72c0-1.13-.79-2.2-1.47-2.64-.71-.46-1.39-.2-2.61.19-21.63,7.05-40.63-4.13-48.47-25.36,21.51-7.45,43.65-.83,51.51,20.63,2.32-11.02,2.03-25.21-3.66-24.67-25.8,2.42-44.91-16.05-47.78-42.34,27.57-2.28,46.64,11.12,51.37,39.66,1.35-5.68,1.76-11.84.72-18.47-19.96-21.42-17.98-48.24,2.68-69.01,20.32,22.27,21.56,47.51,1.59,69.91-.41,6.32-.24,12.17.82,17.56,2.09-7.43,3.46-14.13,7.21-20.02,9.63-15.12,26.82-21.86,44.32-19.6-1.64,24.52-20.44,43.86-44.15,42.13-4.16-.3-8.43.96-8.27,6.13l.59,18.63c3.74-6.07,7.14-12.23,12.99-16.53,10.76-7.93,26.15-8.86,39.17-3.98-4.01,12.16-13.71,22.05-25.65,25.94-15.01,4.9-26.93-4.8-27.03,1.43ZM110.85,29.9l.83,33.73c14.65-17.72,12.98-39.12-2.24-56.55-15.56,16.81-17.21,37.89-2.79,56.63l.61-29.9c.03-1.42-.27-3.02.64-4.06.46-.53,2.94-.57,2.95.15ZM120.26,86.84c11.39,1.22,19.92-4.25,27.3-10.02,6.15-7.42,10.76-15.25,11.62-24.86l-10.22.98c-15.08,2.54-28.45,13.44-30.91,29.73l27.49-21.8c1.02-.71,2.35-.59,2.57.07.32.96.36,2.22-.49,2.93l-27.37,22.96ZM69.96,62.35c.71-1.26,2.09-2.18,2.46-1.93l28.53,22.87c-3.39-19.82-21.91-32.66-41.56-30.63,3.64,19.69,18.18,35.13,38.81,34.56-8.5-9.59-20.24-15.63-28.24-24.87ZM73.24,102.71c.26-.41,1.31-.62,2.18-.25l25.71,10.94c-7.81-15.72-25.72-21.1-41.4-15.94,9.15,16.95,21.94,24.27,39.57,19.87-9.68-5.38-28.54-10.7-26.07-14.62ZM119.9,117.15c11.77,3.8,23.28-.11,31.24-8.78,2.92-3.19,6.24-5.84,7.21-10.96-15.47-5.17-32.8.76-40.38,15.6l25.7-10.85c1.43-.6,2.15,1.4,1.77,2.22s-.5.98-1.59,1.49l-23.95,11.27Z"/>
  <g>
    <path class="cls-2" d="M2.02,194.25v-30.55h19.87v4.64H7.55v8.29h13.3v4.64H7.55v8.34h14.45v4.64H2.02Z"/>
    <path class="cls-2" d="M44.14,172.1c-.14-1.3-.72-2.32-1.75-3.04-1.03-.73-2.36-1.09-4-1.09-1.15,0-2.14.18-2.97.52-.83.35-1.46.82-1.89,1.42-.44.6-.66,1.28-.67,2.04,0,.64.15,1.19.44,1.66s.69.86,1.2,1.19c.51.32,1.07.59,1.69.81s1.24.4,1.86.55l2.86.72c1.15.27,2.26.63,3.33,1.09,1.07.46,2.03,1.03,2.88,1.73.85.7,1.52,1.54,2.02,2.52.5.98.75,2.14.75,3.46,0,1.79-.46,3.36-1.37,4.72-.92,1.36-2.24,2.42-3.96,3.18-1.73.76-3.81,1.14-6.26,1.14s-4.44-.37-6.18-1.1c-1.75-.74-3.11-1.81-4.09-3.22-.98-1.41-1.51-3.13-1.59-5.16h5.44c.08,1.06.41,1.95.98,2.66.58.71,1.33,1.23,2.26,1.58.93.35,1.97.52,3.12.52s2.26-.18,3.17-.54c.91-.36,1.62-.87,2.14-1.52.52-.65.78-1.41.79-2.29,0-.8-.24-1.45-.7-1.98s-1.1-.96-1.92-1.31-1.78-.67-2.87-.95l-3.47-.89c-2.52-.65-4.5-1.63-5.96-2.95-1.46-1.32-2.18-3.07-2.18-5.26,0-1.8.49-3.38,1.47-4.73.98-1.35,2.31-2.4,4-3.16,1.69-.75,3.6-1.13,5.74-1.13s4.07.37,5.71,1.13c1.64.75,2.92,1.79,3.86,3.12.93,1.33,1.42,2.85,1.45,4.57h-5.32Z"/>
    <path class="cls-2" d="M80.95,174.01h-5.58c-.16-.91-.45-1.73-.88-2.44s-.96-1.32-1.6-1.81c-.64-.5-1.36-.87-2.17-1.13-.81-.25-1.68-.38-2.62-.38-1.66,0-3.13.42-4.41,1.25-1.28.83-2.29,2.04-3.01,3.64-.73,1.6-1.09,3.54-1.09,5.84s.37,4.3,1.1,5.9c.73,1.6,1.73,2.8,3.01,3.61,1.28.81,2.74,1.22,4.39,1.22.91,0,1.77-.12,2.57-.37.8-.24,1.52-.6,2.16-1.08.64-.48,1.18-1.07,1.63-1.76.44-.7.75-1.49.92-2.39l5.58.03c-.21,1.45-.66,2.81-1.35,4.09s-1.59,2.39-2.71,3.36-2.42,1.73-3.91,2.27c-1.49.54-3.15.81-4.97.81-2.68,0-5.08-.62-7.19-1.86-2.11-1.24-3.77-3.04-4.98-5.38-1.21-2.35-1.82-5.16-1.82-8.44s.61-6.11,1.83-8.45,2.89-4.13,5-5.38c2.11-1.24,4.49-1.86,7.16-1.86,1.7,0,3.28.24,4.74.72,1.46.48,2.76,1.18,3.91,2.1,1.14.92,2.09,2.04,2.83,3.37.74,1.33,1.23,2.84,1.45,4.54Z"/>
    <path class="cls-2" d="M86.03,194.25v-30.55h5.53v12.93h14.15v-12.93h5.55v30.55h-5.55v-12.98h-14.15v12.98h-5.53Z"/>
    <path class="cls-2" d="M117.28,194.25v-30.55h19.87v4.64h-14.33v8.29h13.3v4.64h-13.3v8.34h14.45v4.64h-19.99Z"/>
    <path class="cls-2" d="M167.9,163.71v30.55h-4.92l-14.39-20.81h-.25v20.81h-5.53v-30.55h4.95l14.38,20.82h.27v-20.82h5.5Z"/>
    <path class="cls-2" d="M196.46,163.71v30.55h-5.53v-25.16h-.18l-7.14,4.57v-5.07l7.59-4.88h5.27Z"/>
    <path class="cls-2" d="M216.66,163.71v30.55h-5.53v-25.16h-.18l-7.14,4.57v-5.07l7.59-4.88h5.27Z"/>
  </g>
</svg>