<?xml version="1.0" encoding="UTF-8"?>
<svg id="Ebene_1" data-name="Ebene 1" xmlns="http://www.w3.org/2000/svg" xmlns:xlink="http://www.w3.org/1999/xlink" viewBox="0 0 268.18 187.6">
  <defs>
    <style>
      .cls-1 {
        fill: url(#Unbenannter_Verlauf_371);
      }

      .cls-2 {
        fill: url(#Unbenannter_Verlauf_371-2);
      }

      .cls-3 {
        fill: #404040;
      }

      .cls-4 {
        fill: #89734e;
      }
    </style>
    <linearGradient id="Unbenannter_Verlauf_371" data-name="Unbenannter Verlauf 371" x1="94.63" y1="137.74" x2="177.76" y2="38.67" gradientUnits="userSpaceOnUse">
      <stop offset="0" stop-color="#89734e"/>
      <stop offset=".32" stop-color="#8d7652"/>
      <stop offset=".66" stop-color="#99825e"/>
      <stop offset="1" stop-color="#ae9672"/>
    </linearGradient>
    <linearGradient id="Unbenannter_Verlauf_371-2" data-name="Unbenannter Verlauf 371" x1="152.02" y1="119.3" x2="178.06" y2="88.26" xlink:href="#Unbenannter_Verlauf_371"/>
  </defs>
  <polygon class="cls-3" points="224.36 184.92 219.56 185.06 198.54 159.24 198.25 184.99 192.35 184.97 192.34 148.1 197.09 148.05 218.24 173.82 218.56 148.05 224.36 148.12 224.36 184.92"/>
  <polygon class="cls-3" points="144.42 185 138.55 185.12 138.53 168.52 118.45 168.5 118.39 184.99 112.55 184.99 112.51 148.08 118.44 148.13 118.46 163.36 138.54 163.36 138.57 148.07 144.41 148.11 144.42 185"/>
  <polygon class="cls-3" points="25.61 168.58 7.43 168.69 7.46 180.01 28.92 180.03 28.91 185.02 1.46 185.03 1.47 148.15 27.92 148.11 27.91 153.06 7.45 153.08 7.49 163.61 25.57 163.63 25.61 168.58"/>
  <polygon class="cls-3" points="179.92 168.65 161.65 168.64 161.66 180 183.37 180.03 183.36 185.02 155.76 185 155.78 148.13 182.37 148.11 182.35 153.05 161.66 153.1 161.67 163.56 179.9 163.64 179.92 168.65"/>
  <path class="cls-3" d="M57.76,184.03c-7.84,3.02-16.42,1.52-22.91-3.24l2.32-4.98c4.96,4.29,11.73,6.09,17.77,3.91,2.12-.77,3.36-2.81,3.35-4.67,0-2.06-1.53-3.74-3.66-4.35l-10.9-3.11c-2.64-.75-5.24-2.19-6.61-4.67-2.85-5.15-.44-11.36,5.05-13.7,6.57-2.81,14.17-1.96,20.43,1.66l-1.69,4.9c-7.06-4.8-18.36-4.47-19.05,1.74-.24,2.15,1.03,3.9,3.15,4.54l10.05,3.03c2.64.79,5.56,1.7,7.29,4.05,3.72,5.04,1.6,12.5-4.59,14.89Z"/>
  <path class="cls-3" d="M100.41,175.45l3.85,3.64c-3.63,4.66-9.57,6.66-15.54,6.41-10.2-.44-17.95-8.12-18.25-18.19-.33-11.01,7.71-19.5,18.77-19.72,5.58-.11,11.03,1.54,14.87,5.83l-3.74,4c-4.04-4.43-9.93-6.07-15.47-3.84s-8.85,7.59-8.48,13.69,3.92,10.59,8.92,12.34c5.55,1.95,11.3.29,15.08-4.16Z"/>
  <polygon class="cls-4" points="240.3 185 240.29 152.31 231.93 152.29 231.91 148.08 245.26 148.08 245.27 185.01 240.3 185"/>
  <polygon class="cls-4" points="261.63 185.04 261.59 152.4 253.29 152.28 253.3 148.12 266.73 148.1 266.72 185.08 261.63 185.04"/>
  <g>
    <path class="cls-1" d="M96.98,118.22l-9.06,9.29h-5.49s0-73.46,0-73.46L134.07,2.01l51.58,51.84v73.65s-88.46-.03-88.46-.03l-.21-9.25ZM134.17,31.36l-11.94,11.45c-11.25,6.58-20.42,15.73-24.87,28.21l-.15-11.22,36.89-37.05,16.04,16.12,11.25-.96-27.33-27.48-45.74,46.18.11,61.55,8.72-8.56.1-16.78c.17-28.16,17.76-47.74,45.48-52.78l-8.56-8.69ZM137.68,67.79l23.47-23.74c-8.03-.09-15.69,1.27-23.58,3.24l.11,20.5ZM163.7,72.3c1.29-8.4,2.38-15.97,1.73-23.98l-23.6,23.97h21.87ZM103.13,112.77l.26,8.78h76.43s.02-64.79.02-64.79l-8.32-8.3c-.36,14.68-1.37,28.72-7.97,41.27-8.08,15.36-22.6,22.91-39.87,22.97l-20.54.06ZM131.76,74.09l-.2-24.59c-4.53,1.81-7.99,3.73-11.47,6.43l.05,29.76,11.62-11.6ZM103.27,102.93l11.05-11.02-.11-30.37c-6.23,6.76-9.28,15.09-10.52,23.95-.61,5.82-.82,11.41-.43,17.44ZM156.72,89.8c2.41-3.83,4.01-7.35,5.12-11.58h-25.7s-11.27,11.57-11.27,11.57h31.85ZM129.88,106.37c8.53-1.17,16.33-4.21,22.11-10.65l-32.94-.08-10.73,11.12,21.56-.38Z"/>
    <path class="cls-2" d="M153.93,106.92l11.01-.12.06-12.3c2.67-3.82,4.29-8,5.94-12.22l.07,30.45-26.9-.07c3.43-1.69,6.8-3.1,9.82-5.74Z"/>
  </g>
</svg>