<?xml version="1.0" encoding="UTF-8"?>
<svg id="Ebene_1" data-name="Ebene 1" xmlns="http://www.w3.org/2000/svg" viewBox="0 0 560 153.56">
  <defs>
    <style>
      .cls-1 {
        fill: #ccbb95;
      }

      .cls-2 {
        isolation: isolate;
      }

      .cls-3 {
        fill: none;
        stroke: #524434;
      }
    </style>
  </defs>
  <line class="cls-3" x1="3.62" y1="4.51" x2="556.38" y2="4.51"/>
  <g>
    <path d="M74.97,86.31c-3.82-.17-10.26-.25-19.31-.25-12.26,0-21.42.08-27.49.25v-1.69c1.85-.11,3.22-.34,4.09-.67s1.46-.98,1.77-1.94c.31-.95.46-2.5.46-4.64v-41.82c0-2.14-.16-3.68-.46-4.64-.31-.95-.9-1.6-1.77-1.94s-2.23-.56-4.09-.67v-1.69c6.07.17,15.23.25,27.49.25,8.26,0,14.14-.08,17.62-.25-.39,4.67-.59,8.83-.59,12.48,0,2.47.08,4.38.25,5.73h-1.94c-.84-6.01-2.36-10.23-4.55-12.65-2.19-2.42-5.28-3.63-9.27-3.63h-3.46c-1.74,0-3.01.14-3.79.42-.79.28-1.32.83-1.6,1.64-.28.82-.42,2.12-.42,3.92v20.91h2.7c2.98,0,5.24-1.1,6.79-3.29s2.63-4.81,3.25-7.84h1.94c-.17,2.36-.25,5-.25,7.93v4.05c0,2.87.17,6.86.51,11.97h-1.94c-1.18-7.42-4.61-11.13-10.29-11.13h-2.7v21.25c0,1.8.14,3.11.42,3.92.28.82.81,1.36,1.6,1.64.79.28,2.05.42,3.79.42h4.13c3.99,0,7.21-1.36,9.65-4.09,2.45-2.73,4.17-7.35,5.19-13.87h1.94c-.17,1.86-.25,4.22-.25,7.08,0,5.17.2,9.44.59,12.82Z"/>
    <path d="M123.35,26.36c1.74.56,3.51,1.38,5.31,2.45.62.34,1.17.62,1.64.84.48.23.89.34,1.22.34.51,0,.9-.3,1.18-.89.28-.59.51-1.53.67-2.82h1.94c-.28,3.77-.42,10.18-.42,19.22h-1.94c-.23-3.04-.91-5.93-2.07-8.68-1.15-2.75-2.78-4.99-4.89-6.7-2.11-1.71-4.57-2.57-7.38-2.57s-4.99.77-6.7,2.32c-1.72,1.55-2.57,3.64-2.57,6.28,0,1.97.42,3.68,1.26,5.14.84,1.46,2.02,2.8,3.54,4.01,1.52,1.21,3.85,2.85,7,4.93l2.7,1.85c3.32,2.19,5.93,4.1,7.84,5.73,1.91,1.63,3.47,3.53,4.68,5.69,1.21,2.16,1.81,4.68,1.81,7.55,0,3.6-.93,6.62-2.78,9.06s-4.37,4.29-7.55,5.52c-3.18,1.24-6.7,1.85-10.58,1.85-3.15,0-5.76-.28-7.84-.84-2.08-.56-3.99-1.32-5.73-2.28-1.24-.79-2.19-1.18-2.87-1.18-.51,0-.9.3-1.18.89s-.51,1.53-.67,2.82h-1.94c.22-3.54.34-11.13.34-22.77h1.94c.39,6.3,1.8,11.4,4.22,15.3,2.42,3.91,6.13,5.86,11.13,5.86,3.04,0,5.54-.81,7.5-2.45,1.97-1.63,2.95-3.96,2.95-7s-1.01-5.85-3.04-8.09c-2.02-2.25-5.23-4.78-9.61-7.59-3.37-2.19-6.07-4.1-8.09-5.73-2.02-1.63-3.68-3.55-4.97-5.78-1.29-2.22-1.94-4.79-1.94-7.72,0-3.37.86-6.22,2.57-8.56,1.71-2.33,4.01-4.06,6.87-5.19,2.87-1.12,6.01-1.69,9.44-1.69,2.92,0,5.26.28,7,.84Z"/>
    <path d="M198.7,26.87c2.36.96,4.66,2.31,6.91,4.05.62.51,1.15.76,1.6.76,1.12,0,1.85-1.69,2.19-5.06h1.94c-.23,3.82-.34,10.62-.34,20.4h-1.94c-.51-4.16-1.18-7.34-2.02-9.53-.84-2.19-2.28-4.1-4.3-5.73-1.41-1.35-3.04-2.37-4.89-3.08-1.85-.7-3.79-1.05-5.82-1.05-5.68,0-9.89,2.77-12.65,8.31-2.76,5.54-4.13,12.44-4.13,20.7s1.43,15.07,4.3,20.57c2.87,5.51,7.14,8.26,12.82,8.26,1.91,0,3.81-.35,5.69-1.05,1.88-.7,3.47-1.73,4.76-3.08,2.08-1.57,3.53-3.54,4.34-5.9.81-2.36,1.45-5.82,1.9-10.37h1.94c0,10.17.11,17.26.34,21.25h-1.94c-.17-1.8-.41-3.08-.72-3.84-.31-.76-.75-1.14-1.31-1.14-.45,0-1.04.23-1.77.67-2.53,1.8-4.95,3.16-7.25,4.09-2.31.93-5.09,1.39-8.35,1.39-5.96,0-11.17-1.21-15.64-3.63-4.47-2.42-7.94-5.92-10.41-10.5-2.47-4.58-3.71-10.05-3.71-16.4s1.26-11.66,3.79-16.44c2.53-4.78,6.06-8.49,10.58-11.13,4.52-2.64,9.68-3.96,15.47-3.96,3.37,0,6.24.48,8.6,1.43Z"/>
    <path d="M291.09,28.97c-.84.34-1.42.98-1.73,1.94-.31.96-.46,2.5-.46,4.64v41.82c0,2.14.15,3.68.46,4.64.31.96.89,1.6,1.73,1.94s2.22.56,4.13.67v1.69c-2.76-.17-7.03-.25-12.82-.25s-10.09.08-13.24.25v-1.69c1.85-.11,3.22-.34,4.09-.67s1.46-.98,1.77-1.94c.31-.95.46-2.5.46-4.64v-20.24h-22.34v20.24c0,2.14.15,3.68.46,4.64.31.96.89,1.6,1.73,1.94.84.34,2.22.56,4.13.67v1.69c-3.04-.17-7.28-.25-12.73-.25-6.02,0-10.46.08-13.32.25v-1.69c1.85-.11,3.22-.34,4.09-.67.87-.34,1.46-.98,1.77-1.94.31-.95.46-2.5.46-4.64v-41.82c0-2.14-.16-3.68-.46-4.64-.31-.95-.9-1.6-1.77-1.94-.87-.34-2.23-.56-4.09-.67v-1.69c2.87.17,7.31.25,13.32.25,5.45,0,9.7-.08,12.73-.25v1.69c-1.91.11-3.29.34-4.13.67-.84.34-1.42.98-1.73,1.94-.31.96-.46,2.5-.46,4.64v19.9h22.34v-19.9c0-2.14-.16-3.68-.46-4.64-.31-.95-.9-1.6-1.77-1.94s-2.23-.56-4.09-.67v-1.69c3.15.17,7.56.25,13.24.25s10.06-.08,12.82-.25v1.69c-1.91.11-3.29.34-4.13.67Z"/>
    <path d="M364.08,86.31c-3.82-.17-10.26-.25-19.31-.25-12.26,0-21.42.08-27.49.25v-1.69c1.85-.11,3.22-.34,4.09-.67.87-.34,1.46-.98,1.77-1.94.31-.95.46-2.5.46-4.64v-41.82c0-2.14-.16-3.68-.46-4.64-.31-.95-.9-1.6-1.77-1.94-.87-.34-2.23-.56-4.09-.67v-1.69c6.07.17,15.23.25,27.49.25,8.26,0,14.14-.08,17.62-.25-.39,4.67-.59,8.83-.59,12.48,0,2.47.08,4.38.25,5.73h-1.94c-.84-6.01-2.36-10.23-4.55-12.65-2.19-2.42-5.28-3.63-9.28-3.63h-3.46c-1.74,0-3.01.14-3.79.42-.79.28-1.32.83-1.6,1.64-.28.82-.42,2.12-.42,3.92v20.91h2.7c2.98,0,5.24-1.1,6.79-3.29,1.55-2.19,2.63-4.81,3.25-7.84h1.94c-.17,2.36-.25,5-.25,7.93v4.05c0,2.87.17,6.86.51,11.97h-1.94c-1.18-7.42-4.61-11.13-10.29-11.13h-2.7v21.25c0,1.8.14,3.11.42,3.92.28.82.81,1.36,1.6,1.64.79.28,2.05.42,3.79.42h4.13c3.99,0,7.21-1.36,9.65-4.09,2.45-2.73,4.17-7.35,5.19-13.87h1.94c-.17,1.86-.25,4.22-.25,7.08,0,5.17.2,9.44.59,12.82Z"/>
    <path d="M441.63,28.3c-1.85.28-3.22.76-4.09,1.43-.87.67-1.46,1.74-1.77,3.2-.31,1.46-.46,3.63-.46,6.49v47.05l-2.02-.08-2.28.08-36.59-46.38v32.38c0,3.32.17,5.75.51,7.29.34,1.55,1.07,2.67,2.19,3.37,1.12.7,2.95,1.2,5.48,1.48v1.69c-2.19-.17-5.23-.25-9.11-.25-3.09,0-5.54.08-7.34.25v-1.69c1.85-.28,3.22-.76,4.09-1.43.87-.67,1.46-1.74,1.77-3.2.31-1.46.46-3.63.46-6.49v-37.94c0-2.14-.16-3.68-.46-4.64-.31-.95-.9-1.6-1.77-1.94-.87-.34-2.23-.56-4.09-.67v-1.69c1.8.17,4.24.25,7.34.25,2.81,0,5.23-.08,7.25-.25l32.63,40.22v-26.39c0-3.32-.17-5.75-.51-7.29-.34-1.55-1.07-2.67-2.19-3.37-1.13-.7-2.95-1.19-5.48-1.48v-1.69c2.19.17,5.23.25,9.11.25,3.15,0,5.59-.08,7.34-.25v1.69Z"/>
    <path class="cls-1" d="M486.73,25.43v62.06h-7.52v-54.18h-.36l-15.15,10.06v-7.64l15.52-10.3h7.52Z"/>
    <path class="cls-1" d="M531.82,25.43v62.06h-7.52v-54.18h-.36l-15.15,10.06v-7.64l15.52-10.3h7.52Z"/>
  </g>
  <line class="cls-3" x1="3.62" y1="108.42" x2="556.38" y2="108.42"/>
  <g class="cls-2">
    <path class="cls-1" d="M27.29,138.67v-9.19h3.11c.72,0,1.31.12,1.77.37.46.24.8.58,1.02,1,.22.42.33.91.33,1.45s-.11,1.02-.33,1.44c-.22.42-.56.75-1.02.99s-1.04.36-1.76.36h-2.51v-1.01h2.48c.49,0,.89-.07,1.19-.21.3-.14.52-.35.66-.61.14-.26.2-.58.2-.95s-.07-.69-.21-.96c-.14-.28-.36-.49-.66-.64-.3-.15-.7-.23-1.2-.23h-1.96v8.21h-1.11ZM31.62,134.54l2.26,4.13h-1.29l-2.23-4.13h1.26Z"/>
    <path class="cls-1" d="M42.7,138.67h-1.17l3.38-9.19h1.15l3.38,9.19h-1.17l-2.75-7.74h-.07l-2.75,7.74ZM43.13,135.07h4.7v.99h-4.7v-.99Z"/>
    <path class="cls-1" d="M57.82,138.67v-9.19h3.11c.72,0,1.31.13,1.77.39.46.26.8.61,1.02,1.05.22.44.33.93.33,1.47s-.11,1.03-.33,1.48c-.22.44-.56.8-1.02,1.06s-1.04.39-1.76.39h-2.23v-.99h2.19c.49,0,.89-.09,1.19-.26s.52-.4.65-.69.2-.62.2-.99-.07-.7-.2-.99-.36-.52-.66-.68c-.3-.17-.7-.25-1.2-.25h-1.96v8.21h-1.11Z"/>
    <path class="cls-1" d="M72.8,138.67v-9.19h3.11c.72,0,1.31.13,1.77.39.46.26.8.61,1.02,1.05.22.44.33.93.33,1.47s-.11,1.03-.33,1.48c-.22.44-.56.8-1.02,1.06-.46.26-1.04.39-1.76.39h-2.23v-.99h2.19c.49,0,.89-.09,1.19-.26.3-.17.52-.4.65-.69.14-.29.2-.62.2-.99s-.07-.7-.2-.99c-.14-.29-.36-.52-.66-.68-.3-.17-.7-.25-1.2-.25h-1.96v8.21h-1.11Z"/>
    <path class="cls-1" d="M87.78,138.67v-9.19h5.55v.99h-4.44v3.11h4.15v.99h-4.15v3.12h4.51v.99h-5.62Z"/>
    <path class="cls-1" d="M102.3,138.67v-9.19h3.11c.72,0,1.31.12,1.77.37.46.24.8.58,1.02,1,.22.42.33.91.33,1.45s-.11,1.02-.33,1.44c-.22.42-.56.75-1.02.99s-1.04.36-1.76.36h-2.51v-1.01h2.48c.49,0,.89-.07,1.19-.21.3-.14.52-.35.66-.61.14-.26.2-.58.2-.95s-.07-.69-.21-.96c-.14-.28-.36-.49-.66-.64-.3-.15-.7-.23-1.2-.23h-1.96v8.21h-1.11ZM106.62,134.54l2.26,4.13h-1.29l-2.23-4.13h1.26Z"/>
    <path class="cls-1" d="M122.36,131.77c-.05-.46-.27-.81-.66-1.06-.38-.25-.85-.38-1.41-.38-.41,0-.76.07-1.07.2s-.54.31-.71.54-.25.49-.25.79c0,.25.06.46.18.63.12.18.27.32.46.44.19.11.38.21.58.28.2.07.39.13.56.18l.93.25c.24.06.51.15.8.26.3.11.58.26.85.45.27.19.49.43.67.73s.27.66.27,1.09c0,.5-.13.95-.39,1.35-.26.4-.64.72-1.13.96-.5.24-1.1.35-1.8.35-.66,0-1.23-.11-1.71-.32s-.86-.51-1.13-.89-.43-.82-.46-1.32h1.15c.03.35.15.63.35.86s.47.39.78.5c.31.11.66.16,1.02.16.42,0,.81-.07,1.14-.21.34-.14.61-.33.8-.58.2-.25.3-.54.3-.88,0-.31-.09-.55-.26-.75s-.4-.35-.67-.47c-.28-.12-.58-.22-.9-.31l-1.13-.32c-.72-.21-1.29-.5-1.71-.88-.42-.38-.63-.88-.63-1.5,0-.51.14-.96.42-1.35.28-.38.66-.68,1.13-.9.47-.21,1-.32,1.59-.32s1.12.1,1.58.32c.46.21.83.5,1.1.86.27.37.41.78.43,1.24h-1.08Z"/>
    <path class="cls-1" d="M134.01,138.67l-2.51-9.19h1.13l1.92,7.49h.09l1.96-7.49h1.26l1.96,7.49h.09l1.92-7.49h1.13l-2.51,9.19h-1.15l-2.03-7.33h-.07l-2.03,7.33h-1.15Z"/>
    <path class="cls-1" d="M152.41,129.47v9.19h-1.11v-9.19h1.11Z"/>
    <path class="cls-1" d="M161.59,138.67v-9.19h1.11v8.21h4.27v.99h-5.39Z"/>
    <path class="cls-1" d="M175.65,138.67v-9.19h5.55v.99h-4.44v3.11h4.15v.99h-4.15v3.12h4.51v.99h-5.62Z"/>
    <path class="cls-1" d="M190.16,138.67v-9.19h3.11c.72,0,1.31.12,1.77.37.46.24.8.58,1.02,1,.22.42.33.91.33,1.45s-.11,1.02-.33,1.44c-.22.42-.56.75-1.02.99s-1.04.36-1.76.36h-2.51v-1.01h2.48c.49,0,.89-.07,1.19-.21.3-.14.52-.35.66-.61.14-.26.2-.58.2-.95s-.07-.69-.21-.96c-.14-.28-.36-.49-.66-.64-.3-.15-.7-.23-1.2-.23h-1.96v8.21h-1.11ZM194.49,134.54l2.26,4.13h-1.29l-2.23-4.13h1.26Z"/>
    <path class="cls-1" d="M210.23,131.77c-.05-.46-.27-.81-.66-1.06-.38-.25-.85-.38-1.41-.38-.41,0-.76.07-1.07.2s-.54.31-.71.54-.25.49-.25.79c0,.25.06.46.18.63s.27.32.46.44.38.21.58.28.39.13.56.18l.93.25c.24.06.51.15.8.26.3.11.58.26.85.45.27.19.5.43.67.73s.26.66.26,1.09c0,.5-.13.95-.39,1.35-.26.4-.64.72-1.13.96-.5.24-1.1.35-1.8.35-.66,0-1.23-.11-1.71-.32s-.86-.51-1.13-.89c-.27-.38-.43-.82-.46-1.32h1.15c.03.35.15.63.35.86s.47.39.78.5c.32.11.66.16,1.02.16.43,0,.81-.07,1.15-.21.34-.14.61-.33.8-.58.2-.25.3-.54.3-.88,0-.31-.09-.55-.26-.75-.17-.19-.4-.35-.67-.47-.28-.12-.58-.22-.9-.31l-1.13-.32c-.72-.21-1.29-.5-1.71-.88-.42-.38-.63-.88-.63-1.5,0-.51.14-.96.42-1.35.28-.38.66-.68,1.13-.9s1-.32,1.59-.32,1.12.1,1.58.32.83.5,1.1.86c.27.37.41.78.43,1.24h-1.08Z"/>
    <path class="cls-1" d="M219.71,130.46v-.99h6.9v.99h-2.89v8.21h-1.11v-8.21h-2.89Z"/>
    <path class="cls-1" d="M235.28,138.67v-9.19h3.11c.72,0,1.31.12,1.77.37.46.24.8.58,1.02,1,.22.42.33.91.33,1.45s-.11,1.02-.33,1.44c-.22.42-.56.75-1.02.99s-1.04.36-1.76.36h-2.51v-1.01h2.48c.49,0,.89-.07,1.19-.21.3-.14.52-.35.66-.61.14-.26.2-.58.2-.95s-.07-.69-.21-.96c-.14-.28-.36-.49-.66-.64-.3-.15-.7-.23-1.2-.23h-1.96v8.21h-1.11ZM239.61,134.54l2.26,4.13h-1.29l-2.23-4.13h1.26Z"/>
    <path class="cls-1" d="M250.69,138.67h-1.17l3.38-9.19h1.15l3.38,9.19h-1.17l-2.75-7.74h-.07l-2.75,7.74ZM251.13,135.07h4.7v.99h-4.7v-.99Z"/>
    <path class="cls-1" d="M270.85,131.77c-.05-.46-.27-.81-.66-1.06-.38-.25-.85-.38-1.41-.38-.41,0-.76.07-1.07.2s-.54.31-.71.54-.25.49-.25.79c0,.25.06.46.18.63s.27.32.46.44.38.21.58.28.39.13.56.18l.93.25c.24.06.51.15.8.26.3.11.58.26.85.45.27.19.5.43.67.73s.26.66.26,1.09c0,.5-.13.95-.39,1.35-.26.4-.64.72-1.13.96-.5.24-1.1.35-1.8.35-.66,0-1.23-.11-1.71-.32s-.86-.51-1.13-.89c-.27-.38-.43-.82-.46-1.32h1.15c.03.35.15.63.35.86s.47.39.78.5c.32.11.66.16,1.02.16.43,0,.81-.07,1.15-.21.34-.14.61-.33.8-.58.2-.25.3-.54.3-.88,0-.31-.09-.55-.26-.75-.17-.19-.4-.35-.67-.47-.28-.12-.58-.22-.9-.31l-1.13-.32c-.72-.21-1.29-.5-1.71-.88-.42-.38-.63-.88-.63-1.5,0-.51.14-.96.42-1.35.28-.38.66-.68,1.13-.9s1-.32,1.59-.32,1.12.1,1.58.32.83.5,1.1.86c.27.37.41.78.43,1.24h-1.08Z"/>
    <path class="cls-1" d="M285.86,131.77c-.05-.46-.27-.81-.66-1.06-.38-.25-.85-.38-1.41-.38-.41,0-.76.07-1.07.2s-.54.31-.71.54-.25.49-.25.79c0,.25.06.46.18.63s.27.32.46.44.38.21.58.28.39.13.56.18l.93.25c.24.06.51.15.8.26.3.11.58.26.85.45.27.19.5.43.67.73s.26.66.26,1.09c0,.5-.13.95-.39,1.35-.26.4-.64.72-1.13.96-.5.24-1.1.35-1.8.35-.66,0-1.23-.11-1.71-.32s-.86-.51-1.13-.89c-.27-.38-.43-.82-.46-1.32h1.15c.03.35.15.63.35.86s.47.39.78.5c.32.11.66.16,1.02.16.43,0,.81-.07,1.15-.21.34-.14.61-.33.8-.58.2-.25.3-.54.3-.88,0-.31-.09-.55-.26-.75-.17-.19-.4-.35-.67-.47-.28-.12-.58-.22-.9-.31l-1.13-.32c-.72-.21-1.29-.5-1.71-.88-.42-.38-.63-.88-.63-1.5,0-.51.14-.96.42-1.35.28-.38.66-.68,1.13-.9s1-.32,1.59-.32,1.12.1,1.58.32.83.5,1.1.86c.27.37.41.78.43,1.24h-1.08Z"/>
    <path class="cls-1" d="M295.85,138.67v-9.19h5.55v.99h-4.44v3.11h4.15v.99h-4.15v3.12h4.51v.99h-5.62Z"/>
    <path class="cls-1" d="M321.5,135.45c-.22,0-.41-.08-.57-.24s-.24-.35-.24-.57.08-.41.24-.57.35-.24.57-.24.41.08.57.24.24.35.24.57c0,.15-.04.28-.11.4-.07.12-.17.22-.29.29-.12.07-.26.11-.41.11Z"/>
    <path class="cls-1" d="M341.82,138.67v-9.19h5.55v.99h-4.44v3.11h4.15v.99h-4.15v3.12h4.51v.99h-5.62Z"/>
    <path class="cls-1" d="M361.36,131.77c-.05-.46-.27-.81-.66-1.06-.38-.25-.85-.38-1.41-.38-.41,0-.76.07-1.07.2s-.54.31-.71.54-.25.49-.25.79c0,.25.06.46.18.63.12.18.27.32.46.44.19.11.38.21.58.28.2.07.39.13.56.18l.93.25c.24.06.51.15.8.26.3.11.58.26.85.45.27.19.49.43.67.73s.27.66.27,1.09c0,.5-.13.95-.39,1.35-.26.4-.64.72-1.13.96-.5.24-1.1.35-1.8.35-.66,0-1.23-.11-1.71-.32s-.86-.51-1.13-.89-.43-.82-.46-1.32h1.15c.03.35.15.63.35.86s.47.39.78.5c.31.11.66.16,1.02.16.42,0,.81-.07,1.14-.21.34-.14.61-.33.8-.58.2-.25.3-.54.3-.88,0-.31-.09-.55-.26-.75s-.4-.35-.67-.47c-.28-.12-.58-.22-.9-.31l-1.13-.32c-.72-.21-1.29-.5-1.71-.88-.42-.38-.63-.88-.63-1.5,0-.51.14-.96.42-1.35.28-.38.66-.68,1.13-.9.47-.21,1-.32,1.59-.32s1.12.1,1.58.32c.46.21.83.5,1.1.86.27.37.41.78.43,1.24h-1.08Z"/>
    <path class="cls-1" d="M378.74,132.34h-1.11c-.07-.32-.18-.6-.34-.84-.16-.24-.36-.45-.59-.61s-.49-.29-.77-.38c-.28-.08-.58-.12-.88-.12-.56,0-1.06.14-1.51.42-.45.28-.81.7-1.07,1.24-.26.55-.4,1.22-.4,2.01s.13,1.47.4,2.02c.27.55.62.96,1.07,1.24.45.28.95.42,1.51.42.3,0,.6-.04.88-.13.28-.08.54-.21.77-.37.23-.17.43-.37.59-.61.16-.24.28-.52.34-.84h1.11c-.08.47-.24.89-.46,1.26-.22.37-.5.69-.83.94-.33.26-.7.46-1.11.59s-.84.2-1.31.2c-.78,0-1.48-.19-2.09-.58-.61-.38-1.09-.93-1.44-1.63-.35-.71-.52-1.54-.52-2.51s.17-1.81.52-2.51.83-1.25,1.44-1.63c.61-.38,1.31-.57,2.09-.57.46,0,.9.07,1.31.2.41.13.78.33,1.11.59.33.26.6.57.83.94.22.37.37.79.46,1.26Z"/>
    <path class="cls-1" d="M387.49,138.67v-9.19h1.11v4.09h4.9v-4.09h1.11v9.19h-1.11v-4.11h-4.9v4.11h-1.11Z"/>
    <path class="cls-1" d="M403.8,138.67v-9.19h5.55v.99h-4.44v3.11h4.15v.99h-4.15v3.12h4.51v.99h-5.62Z"/>
    <path class="cls-1" d="M425.61,129.47v9.19h-1.08l-5.01-7.22h-.09v7.22h-1.11v-9.19h1.08l5.03,7.24h.09v-7.24h1.1Z"/>
    <path class="cls-1" d="M434.79,138.67v-9.19h3.21c.64,0,1.17.11,1.59.33s.73.51.93.88c.2.37.3.78.3,1.23,0,.4-.07.72-.21.98-.14.26-.32.46-.55.61s-.47.26-.73.33v.09c.28.02.56.12.85.3s.52.44.71.77c.19.34.29.75.29,1.23s-.1.88-.31,1.24-.54.66-.99.88c-.45.22-1.04.32-1.77.32h-3.32ZM435.9,133.51h2.07c.34,0,.64-.07.91-.2.27-.13.49-.32.65-.56s.24-.52.24-.84c0-.4-.14-.75-.42-1.03s-.73-.42-1.34-.42h-2.1v3.05ZM435.9,137.68h2.21c.73,0,1.24-.14,1.55-.42.31-.28.46-.63.46-1.03,0-.31-.08-.6-.24-.86-.16-.27-.39-.48-.68-.64-.29-.16-.64-.24-1.04-.24h-2.26v3.2Z"/>
    <path class="cls-1" d="M450.34,138.67h-1.17l3.38-9.19h1.15l3.38,9.19h-1.17l-2.75-7.74h-.07l-2.75,7.74ZM450.77,135.07h4.7v.99h-4.7v-.99Z"/>
    <path class="cls-1" d="M472.86,132.34h-1.11c-.07-.32-.18-.6-.34-.84-.16-.24-.36-.45-.59-.61s-.49-.29-.77-.38c-.28-.08-.58-.12-.88-.12-.56,0-1.06.14-1.51.42-.45.28-.81.7-1.07,1.24-.26.55-.4,1.22-.4,2.01s.13,1.47.4,2.02c.27.55.62.96,1.07,1.24.45.28.95.42,1.51.42.3,0,.6-.04.88-.13.28-.08.54-.21.77-.37.23-.17.43-.37.59-.61.16-.24.28-.52.34-.84h1.11c-.08.47-.24.89-.46,1.26-.22.37-.5.69-.83.94-.33.26-.7.46-1.11.59s-.84.2-1.31.2c-.78,0-1.48-.19-2.09-.58-.61-.38-1.09-.93-1.44-1.63s-.52-1.54-.52-2.51.17-1.81.52-2.51.83-1.25,1.44-1.63c.61-.38,1.31-.57,2.09-.57.46,0,.9.07,1.31.2.41.13.78.33,1.11.59.33.26.6.57.83.94.22.37.37.79.46,1.26Z"/>
    <path class="cls-1" d="M481.61,138.67v-9.19h1.11v4.09h4.9v-4.09h1.11v9.19h-1.11v-4.11h-4.9v4.11h-1.11Z"/>
    <path class="cls-1" d="M513.46,131.77c-.05-.46-.27-.81-.66-1.06-.38-.25-.85-.38-1.41-.38-.41,0-.76.07-1.07.2s-.54.31-.71.54-.25.49-.25.79c0,.25.06.46.18.63s.27.32.46.44.38.21.58.28.39.13.56.18l.93.25c.24.06.51.15.8.26.3.11.58.26.85.45.27.19.5.43.67.73s.26.66.26,1.09c0,.5-.13.95-.39,1.35-.26.4-.64.72-1.13.96-.5.24-1.1.35-1.8.35-.66,0-1.23-.11-1.71-.32s-.86-.51-1.13-.89c-.27-.38-.43-.82-.46-1.32h1.15c.03.35.15.63.35.86s.47.39.78.5c.32.11.66.16,1.02.16.43,0,.81-.07,1.15-.21.34-.14.61-.33.8-.58.2-.25.3-.54.3-.88,0-.31-.09-.55-.26-.75-.17-.19-.4-.35-.67-.47-.28-.12-.58-.22-.9-.31l-1.13-.32c-.72-.21-1.29-.5-1.71-.88-.42-.38-.63-.88-.63-1.5,0-.51.14-.96.42-1.35.28-.38.66-.68,1.13-.9s1-.32,1.59-.32,1.12.1,1.58.32.83.5,1.1.86c.27.37.41.78.43,1.24h-1.08Z"/>
    <path class="cls-1" d="M529.73,132.34c-.1-.3-.23-.57-.39-.81-.16-.24-.35-.45-.57-.62-.22-.17-.47-.3-.75-.39-.28-.09-.58-.13-.92-.13-.54,0-1.04.14-1.49.42-.45.28-.8.7-1.06,1.24-.26.55-.4,1.22-.4,2.01s.13,1.47.4,2.02c.27.55.63.96,1.08,1.24.45.28.97.42,1.54.42.53,0,.99-.11,1.39-.34s.72-.55.94-.96c.23-.41.34-.9.34-1.47l.34.07h-2.77v-.99h3.5v.99c0,.76-.16,1.42-.48,1.98-.32.56-.77.99-1.33,1.3-.56.31-1.21.46-1.94.46-.81,0-1.53-.19-2.14-.58-.61-.38-1.09-.93-1.44-1.63-.34-.71-.51-1.54-.51-2.51,0-.73.1-1.38.29-1.96.2-.58.47-1.08.83-1.49s.78-.72,1.28-.94c.49-.22,1.03-.33,1.62-.33.49,0,.94.07,1.36.22.42.15.8.35,1.13.61.33.27.61.58.83.95s.37.77.46,1.22h-1.15Z"/>
  </g>
</svg>